# xmcd
#
# Track frame offsets:
#	150
#	13749
#	27651
#	38179
#	50186
#	61920
#	74003
#	85518
#	101653
#	114560
#	130379
#	140654
#	154176
#	165493
#	183313
#	193769
#	205769
#	217568
#	227432
#	240123
#	252600
#	261180
#	277580
#	296443
#	308574
#	316769
#	336123
#
# Disc length: 4756 seconds
#
# Revision: 0
# Processed by: cddbd v1.5.2PL0 Copyright (c) Steve Scherf et al.
# Submitted via: audiograbber 1.83.01
#
DISCID=7c12921b
DTITLE=Diverse - Country western 1955 - 1980 CD-8
DYEAR=1900
DGENRE=Country
TTITLE0=Hank Williams - Honky Tonk Blues
TTITLE1=Engelbert Humperdinck - Am I that Easy To Forget
TTITLE2=Patsy Cline - Your Cheating Heart
TTITLE3=Johnny Cash - Home Of The Blues
TTITLE4=Marty Robbins - 18 Yellow Roses
TTITLE5=Brooke Benton - The Boll Weevil Song
TTITLE6=Marty Robbins - The Last Time I Saw My Heart
TTITLE7=Juice Newton - Ride Em´Cowboy
TTITLE8=Jimmy Rodgers - No One Will Ever Know
TTITLE9=Tennesse Ernie Ford - Just A Closer Walk With Thee
TTITLE10=Marty Robbins - Sittin´In A Treehouse
TTITLE11=Jerry Wallace - In The Misty Moonlight
TTITLE12=Johnny Cash - Big River
TTITLE13=Roy Orbison - California Blue
TTITLE14=Gene Mc Daniels - 100 Pounds Of Clay 
TTITLE15=Johnny Cash - Get Rhythm
TTITLE16=Brooke Benton - Kiddio
TTITLE17=Johnny Cash - Rock Island Line
TTITLE18=Juice Newton - Headin' For A Heartache
TTITLE19=Johnny Cash - Give My Love To Rose
TTITLE20=Gene Pitney - I Wanna Love My Life Away
TTITLE21=Shooter Jennings - Slow Train
TTITLE22=Bobbie Gentry - Ode To Billy Joe
TTITLE23=Conway Twity - Before The Next Teardrop Falls
TTITLE24=Johnny Cash - The Wreck Of The Old
TTITLE25=Juice Newton - Country Comfort
TTITLE26=Brenda Lee - Big Four Poster Bed
EXTD=
EXTT0=
EXTT1=
EXTT2=
EXTT3=
EXTT4=
EXTT5=
EXTT6=
EXTT7=
EXTT8=
EXTT9=
EXTT10=
EXTT11=
EXTT12=
EXTT13=
EXTT14=
EXTT15=
EXTT16=
EXTT17=
EXTT18=
EXTT19=
EXTT20=
EXTT21=
EXTT22=
EXTT23=
EXTT24=
EXTT25=
EXTT26=
PLAYORDER=
